<?xml version="1.0" standalone="no"?>
<!DOCTYPE svg PUBLIC "-//W3C//DTD SVG 20010904//EN"
 "http://www.w3.org/TR/2001/REC-SVG-20010904/DTD/svg10.dtd">
<svg version="1.0" xmlns="http://www.w3.org/2000/svg"
 width="400.000000pt" height="400.000000pt" viewBox="0 0 400.000000 400.000000"
 preserveAspectRatio="xMidYMid meet">
<metadata>
Created by potrace 1.14, written by Peter Selinger 2001-2017
</metadata>
<g transform="translate(0.000000,400.000000) scale(0.100000,-0.100000)"
fill="#000000" stroke="none">
<path d="M405 3978 c2 -13 43 -275 90 -583 47 -308 87 -569 90 -580 3 -17 -41
-47 -290 -198 -260 -157 -295 -181 -295 -203 0 -14 3 -23 7 -21 5 2 141 85
303 183 162 98 302 177 310 177 8 -1 51 -15 96 -33 l81 -31 266 -498 c147
-274 267 -503 267 -507 0 -5 -288 -49 -640 -98 -353 -49 -652 -91 -665 -94
-31 -5 -35 -42 -5 -42 11 0 309 40 663 90 355 50 653 90 664 90 15 0 90 -88
264 -310 134 -171 245 -314 246 -318 5 -13 -686 -244 -710 -238 -12 3 -274
113 -582 244 -499 213 -560 237 -563 219 -2 -10 0 -23 5 -27 4 -4 257 -112
560 -241 304 -129 553 -236 553 -239 0 -4 -314 -407 -513 -658 l-50 -63 31 3
c27 3 62 42 309 357 l278 354 363 125 363 125 152 -32 c84 -18 155 -36 158
-39 4 -4 17 -187 28 -407 26 -485 26 -485 52 -485 24 0 24 -45 -6 475 -13 236
-21 432 -16 435 4 3 44 29 88 58 65 43 129 70 339 146 230 83 260 91 270 77 6
-9 172 -275 368 -591 197 -316 364 -581 371 -588 7 -8 21 -12 32 -10 17 2 -39
97 -359 611 -208 334 -377 611 -374 615 2 4 185 129 406 277 l401 270 37 -40
c20 -22 63 -69 94 -105 l57 -65 1 32 c0 26 -15 50 -79 123 l-79 91 31 89 32
89 47 6 c42 6 48 10 48 31 0 21 -4 24 -25 19 -79 -16 -66 -39 -119 208 -26
122 -48 228 -49 236 -1 9 33 30 93 56 74 32 96 46 98 63 2 12 -1 22 -6 22 -5
0 -51 -18 -102 -40 -61 -27 -96 -37 -100 -30 -16 26 -402 1411 -396 1425 5 13
-10 15 -112 14 l-117 -1 78 -14 c43 -7 83 -14 89 -16 19 -7 413 -1421 475
-1703 l56 -259 -29 -85 c-16 -46 -36 -92 -44 -102 -8 -9 -199 -141 -425 -292
l-410 -274 -255 -91 c-140 -50 -258 -88 -261 -84 -4 4 -109 443 -234 976 -221
941 -227 969 -209 986 11 9 244 223 519 475 275 252 507 464 515 472 13 12 10
14 -21 11 -33 -3 -87 -50 -510 -438 -261 -239 -493 -452 -516 -473 -41 -37
-57 -43 -606 -198 l-565 -159 -88 34 c-77 30 -89 38 -95 63 -4 15 -47 286 -95
601 -87 567 -88 572 -111 572 -19 0 -22 -4 -18 -22z m1544 -1025 c5 -27 107
-460 226 -963 118 -503 215 -922 215 -930 0 -9 -35 -40 -77 -69 l-77 -54 -155
33 c-86 18 -163 39 -171 46 -8 7 -129 158 -268 336 l-254 323 -269 504 c-148
278 -269 507 -269 510 0 5 1049 307 1077 310 6 0 16 -20 22 -46z"/>
</g>
</svg>
